<svg xmlns:dc="http://purl.org/dc/elements/1.1/" 
  xmlns:cc="http://creativecommons.org/ns#" 
  xmlns:rdf="http://www.w3.org/1999/02/22-rdf-syntax-ns#" 
  xmlns:svg="http://www.w3.org/2000/svg" 
  xmlns="http://www.w3.org/2000/svg" 
  xmlns:sodipodi="http://sodipodi.sourceforge.net/DTD/sodipodi-0.dtd" 
  xmlns:inkscape="http://www.inkscape.org/namespaces/inkscape" version="1.1" id="svg815" xml:space="preserve" width="107.24413" height="178.74533" viewBox="0 0 107.24413 178.74533" sodipodi:docname="ACRRM_logo_minimal.svg" inkscape:version="0.92.4 (5da689c313, 2019-01-14)">
  <metadata id="metadata821">
    <rdf:RDF>
      <cc:Work rdf:about="">
        <dc:format>image/svg+xml</dc:format>
        <dc:type rdf:resource="http://purl.org/dc/dcmitype/StillImage" />
        <dc:title></dc:title>
      </cc:Work>
    </rdf:RDF>
  </metadata>
  <defs id="defs819">
    <clipPath clipPathUnits="userSpaceOnUse" id="clipPath831">
      <path d="M 0,134.059 H 80.433 V 0 H 0 Z" id="path829" inkscape:connector-curvature="0" />
    </clipPath>
  </defs>
  <sodipodi:namedview pagecolor="#ffffff" bordercolor="#666666" borderopacity="1" objecttolerance="10" gridtolerance="10" guidetolerance="10" inkscape:pageopacity="0" inkscape:pageshadow="2" inkscape:window-width="1920" inkscape:window-height="1027" id="namedview817" showgrid="false" inkscape:zoom="4" inkscape:cx="72.112072" inkscape:cy="85.752501" inkscape:window-x="-8" inkscape:window-y="-8" inkscape:window-maximized="1" inkscape:current-layer="g823" />
  <g id="g823" inkscape:groupmode="layer" inkscape:label="ACRRM logo windmill colour minimal" transform="matrix(1.3333333,0,0,-1.3333333,0,178.74533)">
    <g id="g825">
      <g id="g827" clip-path="url(#clipPath831)">
        <g id="g833" transform="translate(16.0869,134.0586)">
          <path d="m 0,0 c 0,0 -16.087,0 -16.087,-16.089 v -117.97 h 64.349 c 0,0 16.084,0 16.084,16.085 V 0 Z" style="fill:#6a7a11;fill-opacity:1;fill-rule:nonzero;stroke:none" id="path835" inkscape:connector-curvature="0" />
        </g>
        <g id="g837" transform="translate(33.5034,88.6367)">
          <path d="m 0,0 -21.864,-6.16 6.918,-12.69 16.148,17.036 C 0.716,-1.274 0.311,-0.667 0,0" style="fill:#d9dec2;fill-opacity:1;fill-rule:nonzero;stroke:none" id="path839" inkscape:connector-curvature="0" />
        </g>
        <g id="g841" transform="translate(40.2915,84.2241)">
          <path d="M 0,0 C -0.281,0 -0.561,0.013 -0.833,0.045 L -22.034,-84.071 H 22.062 L 0.795,0.041 C 0.531,0.009 0.268,0 0,0" style="fill:#d9dec2;fill-opacity:1;fill-rule:nonzero;stroke:none" id="path843" inkscape:connector-curvature="0" />
        </g>
        <g id="g845" transform="translate(44.8941,97.5801)">
          <path d="M 0,0 15.834,16.71 3.996,23.947 -1.815,1.036 C -1.16,0.774 -0.55,0.423 0,0" style="fill:#d9dec2;fill-opacity:1;fill-rule:nonzero;stroke:none" id="path847" inkscape:connector-curvature="0" />
        </g>
        <g id="g849" transform="translate(36.0835,85.6152)">
          <path d="m 0,0 -16.281,-17.179 11.87,-7.25 5.996,23.618 C 1.022,-0.604 0.486,-0.333 0,0" style="fill:#d9dec2;fill-opacity:1;fill-rule:nonzero;stroke:none" id="path851" inkscape:connector-curvature="0" />
        </g>
        <g id="g853" transform="translate(37.4614,98.602)">
          <path d="M 0,0 -5.836,22.925 -17.714,15.666 -1.854,-1.085 C -1.297,-0.644 -0.669,-0.275 0,0" style="fill:#d9dec2;fill-opacity:1;fill-rule:nonzero;stroke:none" id="path855" inkscape:connector-curvature="0" />
        </g>
        <g id="g857" transform="translate(32.8052,91.7392)">
          <path d="m 0,0 c 0,0.271 0.019,0.536 0.045,0.802 l -21.576,6.11 V -7.466 L 0.131,-1.369 C 0.05,-0.923 0,-0.468 0,0" style="fill:#d9dec2;fill-opacity:1;fill-rule:nonzero;stroke:none" id="path859" inkscape:connector-curvature="0" />
        </g>
        <g id="g861" transform="translate(40.2915,99.1514)">
          <path d="M 0,0 C 0.34,0 0.676,-0.027 1.004,-0.077 L 6.838,22.907 H -6.9 L -1.052,-0.081 C -0.705,-0.036 -0.354,0 0,0" style="fill:#d9dec2;fill-opacity:1;fill-rule:nonzero;stroke:none" id="path863" inkscape:connector-curvature="0" />
        </g>
        <g id="g865" transform="translate(47.773,91.7392)">
          <path d="M 0,0 C 0,-0.509 -0.049,-1.004 -0.148,-1.49 L 21.466,-7.61 V 6.953 L -0.056,0.892 C -0.022,0.599 0,0.302 0,0" style="fill:#d9dec2;fill-opacity:1;fill-rule:nonzero;stroke:none" id="path867" inkscape:connector-curvature="0" />
        </g>
        <g id="g869" transform="translate(45.8101,86.7456)">
          <path d="m 0,0 16.109,-17.021 6.888,12.63 -21.781,6.17 C 0.9,1.126 0.486,0.527 0,0" style="fill:#d9dec2;fill-opacity:1;fill-rule:nonzero;stroke:none" id="path871" inkscape:connector-curvature="0" />
        </g>
        <g id="g873" transform="translate(47.2691,94.4053)">
          <path d="M 0,0 21.499,6.047 14.697,18.525 -1.076,1.878 C -0.628,1.311 -0.266,0.68 0,0" style="fill:#d9dec2;fill-opacity:1;fill-rule:nonzero;stroke:none" id="path875" inkscape:connector-curvature="0" />
        </g>
        <g id="g877" transform="translate(42.8833,84.7915)">
          <path d="M 0,0 6.002,-23.583 17.764,-16.391 1.526,0.761 C 1.051,0.45 0.535,0.193 0,0" style="fill:#d9dec2;fill-opacity:1;fill-rule:nonzero;stroke:none" id="path879" inkscape:connector-curvature="0" />
        </g>
        <g id="g881" transform="translate(34.3277,96.2021)">
          <path d="M 0,0 -15.801,16.688 -22.596,4.219 -1.047,-1.882 C -0.793,-1.203 -0.437,-0.572 0,0" style="fill:#d9dec2;fill-opacity:1;fill-rule:nonzero;stroke:none" id="path883" inkscape:connector-curvature="0" />
        </g>
        <g id="g885" transform="translate(64.0894,34.5561)">
          <path d="M 0,0 V -0.009 Z" style="fill:none;stroke:#ec008c;stroke-width:0.19;stroke-linecap:butt;stroke-linejoin:miter;stroke-miterlimit:4;stroke-dasharray:none;stroke-opacity:1" id="path887" inkscape:connector-curvature="0" />
        </g>
        <g id="g889" transform="translate(24.896,26.4414)">
          <path d="M 0,0 V -0.009 Z" style="fill:none;stroke:#ec008c;stroke-width:0.19;stroke-linecap:butt;stroke-linejoin:miter;stroke-miterlimit:4;stroke-dasharray:none;stroke-opacity:1" id="path891" inkscape:connector-curvature="0" />
        </g>
        <g id="g893" transform="translate(52.5191,85.1831)">
          <path d="m 0,0 c -0.738,1.337 -2.472,3.03 -3.895,3.674 -2.3,1.04 -3.566,0.14 -5.827,-0.103 -3.661,-0.387 -8.469,-1.585 -11.334,-4.026 -6.958,-5.948 -3.463,-15.391 3.584,-18.012 0.485,1.977 1.347,5.336 1.347,5.336 -1.188,0.766 -4.027,3.004 -1.437,7.502 0.816,1.41 2.441,2.851 4.234,3.598 0.675,0.284 1.371,0.459 2.057,0.505 1.056,0.063 2.085,-0.19 2.955,-0.928 1.945,-1.648 3.435,-1.5 5.862,-1.081 C -0.725,-3.242 1.176,-2.121 0,0" style="fill:#f58023;fill-opacity:1;fill-rule:nonzero;stroke:none" id="path895" inkscape:connector-curvature="0" />
        </g>
        <g id="g897" transform="translate(50.9409,45.3496)">
          <path d="m 0,0 c 0,0 1.466,-5.786 1.873,-7.403 -0.024,-2.175 -2.253,-2.576 -4.491,-3.233 -2.889,-0.901 -6.026,-1.689 -8.957,-2.378 -3.184,-0.747 -6.442,-1.319 -9.654,-1.994 -0.901,-0.19 -1.887,-0.37 -2.891,-0.563 -2.652,-0.509 -5.46,-1.144 -7.333,-2.468 -2.884,-2.031 -3.704,-6.178 -2.726,-8.952 0.65,-1.837 2.836,-3.615 5.049,-4.332 l 0.616,2.576 c 0.54,1.959 0.439,1.738 0.986,3.913 0.196,0.779 1.34,1.333 2.294,1.604 8.037,2.287 20.571,5.348 24.642,6.605 C 14.524,-12.406 8.324,0.802 0,0" style="fill:#f58023;fill-opacity:1;fill-rule:nonzero;stroke:none" id="path899" inkscape:connector-curvature="0" />
        </g>
        <g id="g901" transform="translate(44.689,70.0351)">
          <path d="m 0,0 c 0,0 1.466,-5.791 1.873,-7.403 -0.022,-2.18 -2.252,-2.576 -4.489,-3.233 -2.892,-0.901 -7.084,-2.027 -8.428,-2.351 -2.628,-0.635 -5.46,-1.148 -7.333,-2.472 -2.885,-2.031 -3.705,-6.178 -2.726,-8.947 0.649,-1.842 2.836,-3.616 5.049,-4.337 l 0.617,2.58 c 0.541,1.955 0.437,1.739 0.987,3.913 0.193,0.78 1.355,1.271 2.292,1.604 7.774,2.742 7.476,2.674 11.565,4.021 C 14.524,-12.41 8.323,0.797 0,0" style="fill:#f58023;fill-opacity:1;fill-rule:nonzero;stroke:none" id="path903" inkscape:connector-curvature="0" />
        </g>
        <g id="g905" transform="translate(58.2027,16.7334)">
          <path d="M 0,0 1.215,-4.801 C 2.282,-5.679 2.442,-7.048 2.134,-8.421 1.792,-9.947 0.9,-11.483 0.08,-12.393 c -1.544,-1.697 -3.777,-2.728 -4.636,-3.304 -0.443,-0.298 -0.093,-0.555 0.188,-0.496 0.238,0.005 2.404,0.472 3.951,1.297 1.402,0.748 2.56,1.815 3.406,3.076 0.982,1.463 1.538,3.196 1.538,5.025 C 4.527,-3.58 2.717,-1.459 0,0" style="fill:#f58023;fill-opacity:1;fill-rule:nonzero;stroke:none" id="path907" inkscape:connector-curvature="0" />
        </g>
        <g id="g909" transform="translate(45.0083,84.7554)">
          <path d="M 0,0 C -1.337,-1.319 2.013,-1.932 2.959,-1.108 2.168,-0.144 1.238,0.243 0,0" style="fill:#6a7a11;fill-opacity:1;fill-rule:nonzero;stroke:none" id="path911" inkscape:connector-curvature="0" />
        </g>
      </g>
    </g>
  </g>
</svg>