<?xml version="1.0" encoding="utf-8"?>
<!-- Generator: Adobe Illustrator 24.2.1, SVG Export Plug-In . SVG Version: 6.00 Build 0)  -->
<svg version="1.1" xmlns="http://www.w3.org/2000/svg" xmlns:xlink="http://www.w3.org/1999/xlink" x="0px" y="0px"
	 viewBox="0 0 107.2 178.7" style="enable-background:new 0 0 107.2 178.7;" xml:space="preserve">
<style type="text/css">
	.st0{fill:#6A7A11;}
	.st1{fill:#D9DEC2;}
	.st2{fill:#F58023;}
</style>
<g id="background">
	<g id="g833" transform="translate(16.0869,134.0586)">
		<path id="path835" class="st0" d="M5.4-134.1c0,0-21.4,0-21.4,21.5V44.7h85.8c0,0,21.4,0,21.4-21.4v-157.3H5.4z"/>
	</g>
</g>
<g id="tower">
	<g id="g841" transform="translate(40.2915,84.2241)">
		<path id="path843" class="st1" d="M13.4-17.8c-0.4,0-0.7,0-1.1-0.1L-15.9,94.3h58.8L14.5-17.8C14.1-17.8,13.8-17.8,13.4-17.8"/>
	</g>
</g>
<g id="props">
	<g id="g837" transform="translate(33.5034,88.6367)">
		<path id="path839" class="st1" d="M11.2-28.1L-18-19.9l9.2,16.9l21.5-22.7C12.1-26.4,11.6-27.2,11.2-28.1"/>
	</g>
	<g id="g845" transform="translate(44.8941,97.5801)">
		<path id="path847" class="st1" d="M15-48.9l21.1-22.3l-15.8-9.6l-7.7,30.5C13.4-50,14.2-49.5,15-48.9"/>
	</g>
	<g id="g849" transform="translate(36.0835,85.6152)">
		<path id="path851" class="st1" d="M12-21L-9.7,1.9l15.8,9.7l8-31.5C13.4-20.2,12.7-20.6,12-21"/>
	</g>
	<g id="g853" transform="translate(37.4614,98.602)">
		<path id="path855" class="st1" d="M12.5-51.3L4.7-81.9l-15.8,9.7L10-49.9C10.8-50.5,11.6-51,12.5-51.3"/>
	</g>
	<g id="g857" transform="translate(32.8052,91.7392)">
		<path id="path859" class="st1" d="M10.9-35.3c0-0.4,0-0.7,0.1-1.1l-28.8-8.1v19.2l28.9-8.1C11-34.1,10.9-34.7,10.9-35.3"/>
	</g>
	<g id="g861" transform="translate(40.2915,99.1514)">
		<path id="path863" class="st1" d="M13.4-52.6c0.5,0,0.9,0,1.3,0.1l7.8-30.6H4.2L12-52.5C12.5-52.6,13-52.6,13.4-52.6"/>
	</g>
	<g id="g865" transform="translate(47.773,91.7392)">
		<path id="path867" class="st1" d="M15.9-35.3c0,0.7-0.1,1.3-0.2,2l28.8,8.2v-19.4l-28.7,8.1C15.9-36.1,15.9-35.7,15.9-35.3"/>
	</g>
	<g id="g869" transform="translate(45.8101,86.7456)">
		<path id="path871" class="st1" d="M15.3-23.7L36.7-1l9.2-16.8l-29-8.2C16.5-25.2,15.9-24.4,15.3-23.7"/>
	</g>
	<g id="g873" transform="translate(47.2691,94.4053)">
		<path id="path875" class="st1" d="M15.8-41.5l28.7-8.1l-9.1-16.6L14.3-44C14.9-43.3,15.4-42.4,15.8-41.5"/>
	</g>
	<g id="g877" transform="translate(42.8833,84.7915)">
		<path id="path879" class="st1" d="M14.3-19.1l8,31.4L38,2.8L16.3-20.1C15.7-19.7,15-19.4,14.3-19.1"/>
	</g>
	<g id="g881" transform="translate(34.3277,96.2021)">
		<path id="path883" class="st1" d="M11.4-45.7L-9.6-68l-9.1,16.6L10-43.2C10.4-44.1,10.9-45,11.4-45.7"/>
	</g>
</g>
<g id="snake">
	<g id="g893" transform="translate(52.5191,85.1831)">
		<path id="path895" class="st2" d="M17.5-20c-1-1.8-3.3-4-5.2-4.9c-3.1-1.4-4.8-0.2-7.8,0.1c-4.9,0.5-11.3,2.1-15.1,5.4
			c-9.3,7.9-4.6,20.5,4.8,24C-5.1,2-4-2.5-4-2.5c-1.6-1-5.4-4-1.9-10c1.1-1.9,3.3-3.8,5.6-4.8c0.9-0.4,1.8-0.6,2.7-0.7
			c1.4-0.1,2.8,0.3,3.9,1.2c2.6,2.2,4.6,2,7.8,1.4C16.5-15.7,19.1-17.2,17.5-20"/>
	</g>
	<g id="g897" transform="translate(50.9409,45.3496)">
		<path id="path899" class="st2" d="M17,72.9c0,0,2,7.7,2.5,9.9c0,2.9-3,3.4-6,4.3c-3.9,1.2-8,2.3-11.9,3.2c-4.2,1-8.6,1.8-12.9,2.7
			c-1.2,0.3-2.5,0.5-3.9,0.8c-3.5,0.7-7.3,1.5-9.8,3.3c-3.8,2.7-4.9,8.2-3.6,11.9c0.9,2.4,3.8,4.8,6.7,5.8l0.8-3.4
			c0.7-2.6,0.6-2.3,1.3-5.2c0.3-1,1.8-1.8,3.1-2.1c10.7-3,27.4-7.1,32.9-8.8C36.3,89.5,28.1,71.9,17,72.9"/>
	</g>
	<g id="g901" transform="translate(44.689,70.0351)">
		<path id="path903" class="st2" d="M14.9,15.3c0,0,2,7.7,2.5,9.9c0,2.9-3,3.4-6,4.3C7.6,30.7,2,32.2,0.2,32.6
			c-3.5,0.8-7.3,1.5-9.8,3.3c-3.8,2.7-4.9,8.2-3.6,11.9c0.9,2.5,3.8,4.8,6.7,5.8l0.8-3.4c0.7-2.6,0.6-2.3,1.3-5.2
			c0.3-1,1.8-1.7,3.1-2.1c10.4-3.7,10-3.6,15.4-5.4C34.3,31.9,26,14.3,14.9,15.3"/>
	</g>
	<g id="g905" transform="translate(58.2027,16.7334)">
		<path id="path907" class="st2" d="M19.4,139.7l1.6,6.4c1.4,1.2,1.6,3,1.2,4.8c-0.5,2-1.6,4.1-2.7,5.3c-2.1,2.3-5,3.6-6.2,4.4
			c-0.6,0.4-0.1,0.7,0.3,0.7c0.3,0,3.2-0.6,5.3-1.7c1.9-1,3.4-2.4,4.5-4.1c1.3-2,2.1-4.3,2.1-6.7C25.4,144.5,23,141.6,19.4,139.7"/>
	</g>
	<g id="g909" transform="translate(45.0083,84.7554)">
		<path id="path911" class="st0" d="M15-19c-1.8,1.8,2.7,2.6,3.9,1.5C17.9-18.8,16.7-19.3,15-19"/>
	</g>
</g>
</svg>
