<?xml version="1.0" encoding="utf-8"?>
<!-- Generator: Adobe Illustrator 24.1.0, SVG Export Plug-In . SVG Version: 6.00 Build 0)  -->
<svg version="1.1" id="Group_5" xmlns="http://www.w3.org/2000/svg" xmlns:xlink="http://www.w3.org/1999/xlink" x="0px" y="0px" viewBox="0 0 230 65" style="enable-background:new 0 0 230 65;" xml:space="preserve">
  <style type="text/css">
	.st0{fill:none;stroke:#EC008C;stroke-width:0.19;}
	.st1{fill:#6B7A12;}
	.st2{fill:#F58023;}
	.st3{fill:#D9DDC1;}
</style>
  <path id="Path_2" class="st1" d="M58.6,13.4l-1.4,3.3H60L58.6,13.4z M63.5,22.4c-0.2,0-0.3,0.1-0.6,0.1c-0.5,0-0.8-0.1-0.9-0.3
	l-1.5-3.9h-3.8L55.2,22c-0.1,0.2-0.5,0.3-1,0.3c-0.6,0-0.8-0.1-0.8-0.3v-0.1l4.1-10.1c0.2-0.4,0.6-0.6,1-0.6c0.6,0,0.9,0.2,1,0.6
	l4.3,10.1V22C63.9,22.2,63.8,22.3,63.5,22.4" />
  <path id="Path_3" class="st1" d="M70.9,22.4h-2.8c-1,0-2-0.4-2.7-1.2c-0.6-0.8-0.8-1.8-0.8-2.8v-3.8c0-0.3,0.3-0.5,0.9-0.5
	c0.5,0,0.8,0.1,0.8,0.5v3.8c0,0.6,0.1,1.2,0.3,1.7c0.2,0.5,0.7,0.9,1.2,1h2.4v-6.5c0-0.3,0.3-0.5,0.8-0.5c0.5,0,0.8,0.1,0.8,0.5V22
	C71.8,22.3,71.5,22.4,70.9,22.4" />
  <path id="Path_4" class="st1" d="M78,22.1c-0.6,0.2-1.3,0.4-1.9,0.3c-1.6,0-2.7-0.6-3.2-1.6v-0.2c0-0.2,0.1-0.3,0.3-0.6
	c0.2-0.1,0.4-0.2,0.6-0.2c0.2,0,0.3,0.1,0.5,0.2c0.3,0.7,1,1.1,1.8,1c1.2,0,1.8-0.3,1.8-1.1c0-0.2-0.1-0.5-0.3-0.6
	c-0.4-0.2-0.9-0.4-1.4-0.5c-0.5-0.1-1.1-0.3-1.6-0.5c-1.1-0.4-1.7-1.1-1.7-2c0-0.7,0.4-1.4,1-1.8c0.7-0.3,1.4-0.5,2.1-0.5
	c1-0.1,2.1,0.3,2.8,1l0,0c0.1,0.1,0.1,0.1,0.1,0.2c0,0.2-0.1,0.3-0.3,0.6c-0.2,0.1-0.4,0.2-0.7,0.2c-0.2,0-0.3-0.1-0.5-0.2
	c-0.2-0.3-0.7-0.5-1.4-0.5c-1.1,0-1.7,0.3-1.7,0.9c0,0.3,0.2,0.6,0.6,0.7c0.4,0.1,0.8,0.2,1.2,0.3c0.5,0.1,1.1,0.2,1.6,0.5
	c1,0.2,1.7,1.1,1.7,2.1C79.5,21,78.9,21.8,78,22.1" />
  <path id="Path_5" class="st1" d="M84,15.8h-1.1v6c0,0.3-0.2,0.6-0.8,0.6s-0.8-0.2-0.8-0.6v-6h-0.5c-0.3,0-0.5-0.2-0.5-0.7
	s0.1-0.7,0.5-0.7h0.4v-2c0-0.3,0.2-0.6,0.8-0.6s0.8,0.1,0.8,0.6v2H84c0.3,0,0.5,0.2,0.5,0.7S84.3,15.8,84,15.8" />
  <path id="Path_6" class="st1" d="M89.8,15.8c-0.1,0-0.2,0-0.3-0.1c-0.1-0.2-0.3-0.2-0.7-0.2c-0.6,0-1.3,0.3-1.6,0.9
	c-0.3,0.5-0.5,1.2-0.5,1.8V22c0,0.3-0.3,0.5-0.9,0.5c-0.5,0-0.8-0.1-0.8-0.5v-7.1l0,0c0-0.3,0.3-0.6,0.9-0.6s0.8,0.2,0.8,0.6V15
	c0.5-0.5,1.3-0.8,2-0.8c0.5,0,1,0,1.5,0.2c0.2,0.1,0.3,0.3,0.3,0.6c0,0.2-0.1,0.4-0.2,0.6C90.2,15.6,90.1,15.8,89.8,15.8" />
  <path id="Path_7" class="st1" d="M94.8,15.4h-0.2c-0.6,0.1-1,0.5-1.2,1C93.1,17,93,17.5,93,18.1c0,0.7,0.1,1.3,0.5,1.9
	c0.3,0.6,0.9,1,1.6,0.9c0.6,0,1.3-0.3,1.6-0.9c0.2-0.6,0.3-1.3,0.2-1.9v-2.7H94.8z M97.7,22.5c-0.5,0-0.8-0.1-0.8-0.5v-0.6
	c-0.6,0.6-1.3,0.9-2.1,0.9c-1.1,0-2.1-0.5-2.7-1.4c-0.6-0.9-0.9-1.9-0.9-2.9c0-1,0.2-2,0.8-2.8c0.7-0.8,1.7-1.3,2.7-1.2h2.8
	c0.6,0,0.8,0.2,0.8,0.6v7.4C98.5,22.3,98.2,22.5,97.7,22.5" />
  <path id="Path_8" class="st1" d="M100.8,22.4c-0.6,0-0.8-0.2-0.8-0.7v-9c0-0.3,0.1-0.6,0.3-0.9c0.2-0.3,0.5-0.5,0.9-0.6
	c0.2,0,0.3,0.2,0.3,0.6v9.9C101.6,22.2,101.3,22.4,100.8,22.4" />
  <path id="Path_9" class="st1" d="M104.2,22.4c-0.5,0-0.8-0.1-0.8-0.5v-7.2c0-0.3,0.2-0.6,0.8-0.6s0.8,0.2,0.8,0.6V22
	C105.1,22.2,104.7,22.4,104.2,22.4 M104.2,12.9c-0.2,0-0.5-0.1-0.7-0.2c-0.2-0.2-0.3-0.4-0.2-0.7c0-0.2,0.1-0.5,0.2-0.7
	c0.2-0.2,0.4-0.3,0.7-0.2c0.2,0,0.5,0.1,0.7,0.2c0.2,0.2,0.3,0.4,0.2,0.7c0,0.3-0.1,0.5-0.3,0.7C104.7,12.8,104.5,12.9,104.2,12.9" />
  <path id="Path_10" class="st1" d="M110.1,15.4h-0.2c-0.6,0.1-1,0.5-1.2,1c-0.2,0.5-0.4,1.1-0.3,1.7c0,0.7,0.1,1.3,0.5,1.9
	c0.3,0.6,0.9,1,1.6,0.9c0.6,0,1.3-0.3,1.6-0.9c0.2-0.6,0.3-1.3,0.2-1.9v-2.7H110.1z M113.1,22.5c-0.5,0-0.8-0.1-0.8-0.5v-0.6
	c-0.6,0.6-1.3,0.9-2.1,0.9c-1.1,0-2.1-0.5-2.7-1.4c-0.6-0.9-0.9-1.9-0.9-2.9c0-1,0.2-2,0.8-2.8c0.7-0.8,1.7-1.3,2.7-1.2h2.8
	c0.6,0,0.8,0.2,0.8,0.6v7.4C113.8,22.3,113.6,22.5,113.1,22.5" />
  <path id="Path_11" class="st1" d="M121.5,22.4c-0.5,0-0.8-0.1-0.8-0.5v-3.8c0-0.6-0.1-1.2-0.3-1.7c-0.2-0.5-0.7-0.9-1.2-1h-2.4v6.6
	c0,0.3-0.3,0.5-0.8,0.5s-0.8-0.1-0.8-0.5v-7.4c0-0.3,0.2-0.6,0.8-0.6h2.8c1,0,2,0.4,2.7,1.2c0.6,0.8,0.8,1.8,0.8,2.8V22
	C122.4,22.3,122.1,22.4,121.5,22.4" />
  <path id="Path_12" class="st1" d="M138.4,19.8c-0.7,1.7-2.4,2.8-4.3,2.7c-2,0.2-3.9-0.9-4.7-2.8c-0.4-0.9-0.6-1.9-0.6-2.9
	c0-2.4,0.9-4.1,2.6-5c0.8-0.5,1.8-0.7,2.7-0.7c1.7-0.1,3.2,0.7,4.1,2.1c0,0.1,0.1,0.2,0.1,0.2c0,0.2-0.1,0.5-0.3,0.6
	c-0.2,0.1-0.4,0.2-0.7,0.2c-0.2,0-0.5-0.1-0.6-0.3c-0.5-0.9-1.4-1.5-2.5-1.5c-1.4-0.2-2.8,0.7-3.2,2.1c-0.2,0.7-0.3,1.3-0.3,2
	c0,1.9,0.6,3.2,1.6,3.8c0.5,0.3,1.2,0.5,1.8,0.5c1.2,0.1,2.4-0.6,2.8-1.8c0.1-0.3,0.3-0.6,0.7-0.6c0.2,0,0.5,0.1,0.7,0.2
	c0.2,0.2,0.3,0.4,0.3,0.7C138.5,19.6,138.5,19.7,138.4,19.8" />
  <path id="Path_13" class="st1" d="M145.3,16.3c-0.6-0.9-1.9-1.2-2.8-0.6c-0.2,0.1-0.4,0.3-0.6,0.6c-0.3,0.6-0.5,1.2-0.5,1.9
	c-0.1,0.7,0.1,1.3,0.5,1.9c0.4,0.6,1,0.9,1.7,0.9c0.7,0,1.3-0.3,1.7-0.9c0.3-0.6,0.5-1.2,0.5-1.9C145.8,17.6,145.6,16.9,145.3,16.3
	 M145.5,22c-0.6,0.3-1.3,0.5-2,0.5c-1.1,0.1-2.2-0.3-2.9-1.1c-0.7-0.8-1-1.9-0.9-2.9c-0.1-1.2,0.4-2.4,1.2-3.3
	c0.7-0.6,1.6-0.9,2.6-0.9c1.1-0.1,2.2,0.3,2.9,1.1c0.7,0.8,1.1,1.9,1,2.9C147.5,19.7,146.8,21.2,145.5,22" />
  <path id="Path_14" class="st1" d="M149.6,22.4c-0.6,0-0.8-0.2-0.8-0.7v-9c0-0.3,0.1-0.6,0.3-0.9c0.2-0.3,0.5-0.5,0.9-0.6
	c0.2,0,0.3,0.2,0.3,0.6v9.9C150.4,22.2,150,22.4,149.6,22.4" />
  <path id="Path_15" class="st1" d="M153,22.4c-0.6,0-0.8-0.2-0.8-0.7v-9c0-0.3,0.1-0.6,0.3-0.9c0.2-0.3,0.5-0.5,0.9-0.6
	c0.2,0,0.3,0.2,0.3,0.6v9.9C153.7,22.2,153.5,22.4,153,22.4" />
  <path id="Path_16" class="st1" d="M160.6,16.1c-0.4-0.4-1-0.7-1.6-0.7c-0.5,0-1.1,0.2-1.5,0.6c-0.4,0.4-0.6,0.8-0.7,1.4l4.1-0.2
	C160.9,16.8,160.8,16.4,160.6,16.1 M162.7,18.2v0.2l-5.7,0.3c0,0.6,0.3,1.2,0.7,1.6c0.4,0.4,1,0.7,1.6,0.7c0.8,0,1.6-0.5,1.9-1.2
	c0.2-0.3,0.5-0.4,0.8-0.5c0.6,0,0.8,0.2,0.8,0.6V20c-0.2,0.7-0.7,1.4-1.4,1.8c-0.7,0.4-1.5,0.6-2.3,0.6c-1.1,0.1-2.2-0.3-2.9-1.1
	c-0.7-0.8-1.1-1.9-1-2.9c0-1.1,0.3-2.1,0.9-2.9c0.7-0.8,1.8-1.3,2.9-1.2c1-0.1,2,0.4,2.7,1.1c0.3,0.3,0.5,0.7,0.7,1.1
	c0.1,0.6,0.2,1.2,0.2,1.8C162.7,18.1,162.7,18.2,162.7,18.2" />
  <path id="Path_17" class="st1" d="M167.3,15.4h-0.2c-0.6,0.1-1.1,0.5-1.2,1.1c-0.2,0.5-0.4,1.1-0.3,1.7c0,0.7,0.1,1.3,0.5,1.9
	c0.3,0.6,0.9,1,1.6,0.9c0.6,0,1.3-0.3,1.6-0.9c0.2-0.6,0.3-1.3,0.2-1.9v-2.8H167.3z M170.9,22.3c0,0.4-0.1,0.7-0.2,1
	c-0.5,1.5-1.7,2.1-3.6,2.1c-1.6,0-2.6-0.5-3.2-1.4c0-0.1-0.1-0.1-0.1-0.2c0-0.2,0.1-0.3,0.3-0.6c0.2-0.1,0.3-0.2,0.6-0.2
	c0.2,0,0.4,0.1,0.6,0.2c0.1,0.2,0.2,0.3,0.3,0.3c0.4,0.3,1,0.4,1.5,0.3c1.2,0,1.9-0.5,2.1-1.4c0-0.2,0.1-0.6,0.1-1.1
	c-0.5,0.5-1.2,0.8-1.9,0.8c-1.1,0-2.1-0.5-2.7-1.4c-0.6-0.9-0.9-1.9-0.9-2.9c-0.1-1,0.2-2,0.8-2.8c0.7-0.8,1.7-1.3,2.7-1.2h2.8
	c0.6,0,0.8,0.2,0.8,0.6L170.9,22.3" />
  <path id="Path_18" class="st1" d="M177.6,16.1c-0.4-0.4-1-0.7-1.6-0.7c-0.5,0-1.1,0.2-1.5,0.6c-0.4,0.4-0.6,0.8-0.7,1.4l4.1-0.2
	C178,16.7,177.9,16.4,177.6,16.1 M179.7,18.2v0.2l-5.7,0.3c0,0.6,0.3,1.2,0.7,1.6c0.4,0.4,1,0.7,1.6,0.7c0.8,0,1.6-0.5,1.9-1.2
	c0.2-0.3,0.5-0.4,0.8-0.5c0.6,0,0.8,0.2,0.8,0.6V20c-0.2,0.7-0.7,1.4-1.4,1.8c-0.7,0.4-1.5,0.6-2.3,0.6c-1.1,0.1-2.2-0.3-2.9-1.1
	c-0.7-0.8-1.1-1.9-1-2.9c0-1.1,0.3-2.1,0.9-2.9c0.7-0.8,1.8-1.3,2.9-1.2c1-0.1,2,0.4,2.7,1.1c0.3,0.3,0.5,0.7,0.7,1.1
	c0.1,0.6,0.2,1.2,0.2,1.8C179.7,18.1,179.7,18.2,179.7,18.2" />
  <path id="Path_19" class="st1" d="M191.4,16.3c-0.6-0.9-1.9-1.2-2.8-0.6c-0.2,0.1-0.4,0.3-0.6,0.6c-0.3,0.6-0.5,1.2-0.5,1.9
	c-0.1,0.7,0.1,1.3,0.5,1.9c0.4,0.6,1,0.9,1.7,0.9c0.7,0,1.3-0.3,1.7-0.9c0.3-0.6,0.5-1.2,0.5-1.9C192,17.6,191.8,16.9,191.4,16.3
	 M191.7,22c-0.6,0.3-1.3,0.5-2,0.5c-1.1,0.1-2.2-0.3-2.9-1.1c-0.7-0.8-1-1.9-0.9-2.9c-0.1-1.2,0.4-2.4,1.2-3.3
	c0.7-0.6,1.6-0.9,2.6-0.9c1.1-0.1,2.2,0.3,2.9,1.1c0.7,0.8,1.1,1.9,1,2.9C193.8,19.7,193,21.2,191.7,22" />
  <path id="Path_20" class="st1" d="M199.1,12.5h-1.1c-0.8,0-1.2,0.5-1.2,1.5v0.9h1.5c0.3,0,0.6,0.3,0.6,0.7c0,0.5-0.2,0.7-0.6,0.7
	h-1.5V22c0,0.5-0.2,0.7-0.8,0.7s-0.8-0.2-0.8-0.7v-5.7h-0.6c-0.3,0-0.5-0.2-0.5-0.6c0-0.5,0.1-0.8,0.5-0.8h0.6v-0.7
	c-0.1-0.7,0.1-1.3,0.5-1.9c0.5-0.7,1.3-1.1,2.1-1h1.4c0.4,0,0.7,0.3,0.7,0.6c0,0,0,0,0,0.1C199.7,12.3,199.4,12.5,199.1,12.5" />
  <path id="Path_21" class="st1" d="M101,36.5c-0.5,0.8-1.3,1.3-2.3,1.4c-1.1,0-1.9-0.9-1.9-1.9c0.1-0.8,0.5-1.5,1.2-1.9l0.7-0.3
	l2.5,2.5C101.1,36.3,101.1,36.4,101,36.5 M98.4,29.5c0.4-0.4,1.2-0.4,1.6,0c0.2,0.2,0.3,0.5,0.3,0.8c0,0.3-0.1,0.5-0.2,0.8
	c-0.2,0.2-0.4,0.3-0.6,0.5h-0.3c-0.8,0-1.1-0.5-1.1-1.4C98.2,30,98.2,29.7,98.4,29.5 M105.3,37.9l-2-2c0.1-0.1,0.1-0.3,0.1-0.5
	c0.2-0.4,0.2-0.8,0.2-1.2c0-0.2-0.1-0.5-0.3-0.6c-0.2-0.1-0.4-0.1-0.6-0.1c-0.5,0-0.7,0.1-0.7,0.5c0,0.2-0.1,0.3-0.1,0.5l-1.6-1.6
	l0.3-0.2c0.8-0.4,1.4-1.3,1.5-2.3c0.1-0.7-0.2-1.4-0.8-1.8c-0.5-0.5-1.2-0.7-1.9-0.7c-0.7,0-1.5,0.2-2,0.7c-0.6,0.5-0.9,1.2-0.9,1.9
	c0,0.5,0.1,0.9,0.3,1.4c0.2,0.4,0.6,0.7,1,0.8c-0.7,0.4-1.3,0.8-1.9,1.4c-0.5,0.6-0.8,1.3-0.9,2c0,0.9,0.3,1.8,1,2.4
	c0.7,0.6,1.6,0.9,2.6,0.9c1.2,0,2.3-0.5,3.2-1.4c0.2-0.1,0.4-0.3,0.5-0.6l1.7,1.7C104.9,39.8,106.1,38.6,105.3,37.9" />
  <path id="Path_22" class="st1" d="M58.7,29.7c-0.4-0.1-0.9-0.2-1.4-0.1h-2.3v3.6h2.3c1.7,0,2.5-0.6,2.5-1.8c0-0.4-0.1-0.7-0.3-1
	C59.5,30,59.1,29.7,58.7,29.7 M60.4,34c0.7,0.5,1.2,1.3,1.1,2.1v2.7c0,0.3-0.2,0.5-0.8,0.5s-0.8-0.1-0.9-0.5v-2.6
	c0-0.2-0.1-0.5-0.2-0.7c-0.4-0.5-1-0.8-1.6-0.8h-2.8v4.1c0,0.3-0.3,0.6-0.9,0.6s-0.8-0.2-0.8-0.6V28.2h3.8c0.6,0,1.1,0,1.7,0.1
	c1,0.1,1.9,0.7,2.4,1.6c0.2,0.5,0.3,1,0.3,1.5C61.8,32.4,61.3,33.4,60.4,34" />
  <path id="Path_23" class="st1" d="M69.8,39.2H67c-1,0-2-0.4-2.7-1.2c-0.6-0.8-0.8-1.8-0.8-2.8v-3.8c0-0.3,0.3-0.5,0.9-0.5
	c0.5,0,0.8,0.1,0.8,0.5v3.8c0,0.6,0.1,1.2,0.3,1.7c0.2,0.5,0.7,0.9,1.2,1h2.4v-6.5c0-0.3,0.3-0.5,0.8-0.5c0.5,0,0.8,0.1,0.8,0.5v7.3
	C70.6,39.1,70.3,39.2,69.8,39.2" />
  <path id="Path_24" class="st1" d="M76.6,32.7c-0.1,0-0.2,0-0.3-0.1c-0.1-0.2-0.3-0.2-0.7-0.2c-0.6,0-1.3,0.3-1.6,0.9
	c-0.3,0.5-0.5,1.2-0.5,1.8v3.8c0,0.3-0.3,0.5-0.9,0.5c-0.5,0-0.8-0.1-0.8-0.5v-7.1l0,0c0-0.3,0.3-0.6,0.9-0.6s0.8,0.2,0.8,0.6v0.1
	c0.5-0.5,1.3-0.8,2-0.8c0.5,0,1,0,1.5,0.2c0.2,0.1,0.3,0.3,0.3,0.6C77.4,32.3,77.1,32.7,76.6,32.7C76.7,32.7,76.7,32.7,76.6,32.7" />
  <path id="Path_25" class="st1" d="M81.7,32.3h-0.2c-0.6,0.1-1,0.5-1.2,1c-0.2,0.5-0.4,1.1-0.3,1.7c0,0.7,0.1,1.3,0.5,1.9
	c0.3,0.6,0.9,1,1.6,0.9c0.6,0,1.3-0.3,1.6-0.9c0.2-0.6,0.3-1.3,0.2-1.9v-2.7H81.7z M84.7,39.3c-0.5,0-0.8-0.1-0.8-0.5v-0.6
	c-0.6,0.6-1.3,0.9-2.1,0.9c-1.1,0-2.1-0.5-2.7-1.4c-0.6-0.9-0.9-1.9-0.9-2.9c0-1,0.2-2,0.8-2.8c0.7-0.8,1.7-1.3,2.7-1.2h2.8
	c0.6,0,0.8,0.2,0.8,0.6v7.4C85.3,39.2,85.1,39.3,84.7,39.3" />
  <path id="Path_26" class="st1" d="M87.7,39.2c-0.6,0-0.8-0.2-0.8-0.7v-9c0-0.3,0.1-0.6,0.3-0.9c0.2-0.3,0.5-0.5,0.9-0.6
	c0.2,0,0.3,0.2,0.3,0.6v9.9C88.5,39,88.3,39.2,87.7,39.2" />
  <path id="Path_27" class="st1" d="M116.3,29.7c-0.4-0.1-0.9-0.2-1.4-0.1h-2.3v3.6h2.3c1.7,0,2.5-0.6,2.5-1.8c0-0.4-0.1-0.7-0.3-1
	C117,30,116.7,29.8,116.3,29.7 M117.9,34c0.7,0.5,1.2,1.3,1.1,2.1v2.7c0,0.3-0.2,0.5-0.8,0.5s-0.8-0.1-0.9-0.5v-2.6
	c0-0.2-0.1-0.5-0.2-0.7c-0.4-0.5-1-0.8-1.6-0.8h-2.8v4.1c0,0.3-0.3,0.6-0.9,0.6s-0.8-0.2-0.8-0.6V28.2h3.8c0.6,0,1.1,0,1.7,0.1
	c1,0.1,1.9,0.7,2.4,1.6c0.2,0.5,0.3,1,0.3,1.5C119.3,32.4,118.8,33.4,117.9,34" />
  <path id="Path_28" class="st1" d="M126.1,33c-0.4-0.4-1-0.7-1.6-0.7c-0.5,0-1.1,0.2-1.5,0.6c-0.4,0.4-0.6,0.8-0.7,1.4l4.1-0.2
	C126.5,33.7,126.4,33.3,126.1,33 M128.2,35.2v0.2l-5.7,0.3c0,0.6,0.3,1.2,0.7,1.6c0.4,0.4,1,0.7,1.6,0.7c0.8,0,1.6-0.5,1.9-1.2
	c0.2-0.3,0.5-0.4,0.8-0.5c0.6,0,0.8,0.2,0.8,0.6V37c-0.2,0.7-0.7,1.4-1.4,1.8c-0.7,0.4-1.5,0.6-2.3,0.6c-1.1,0.1-2.2-0.3-2.9-1.1
	c-0.7-0.8-1.1-1.9-1-2.9c0-1.1,0.3-2.1,0.9-2.9c0.7-0.8,1.8-1.3,2.9-1.2c1-0.1,2,0.4,2.7,1.1c0.3,0.3,0.5,0.7,0.7,1.1
	c0.1,0.6,0.2,1.2,0.2,1.8C128.2,35,128.2,35,128.2,35.2" />
  <path id="Path_29" class="st1" d="M134,33.2c-0.2-0.5-0.7-0.8-1.2-0.9H131v6.5c0,0.3-0.3,0.5-0.8,0.5c-0.5,0-0.8-0.1-0.8-0.5v-7.4
	c0-0.3,0.2-0.6,0.8-0.6h2.3c1.1,0,2.1,0.5,2.7,1.4c0.3-0.4,0.6-0.7,1-0.9c1.3-0.7,3-0.3,3.7,1c0.5,0.9,0.8,2,0.8,3l-0.3-0.1l0.3-0.2
	v3.6c0,0.3-0.2,0.6-0.8,0.6s-0.8-0.2-0.8-0.6V35c0-1.1-0.2-1.9-0.8-2.3c-0.2-0.1-0.5-0.2-0.8-0.2c-0.6,0-0.9,0.3-1.2,0.9
	c-0.2,0.4-0.3,0.8-0.2,1.2l0,0v4.2c0,0.3-0.3,0.5-0.9,0.5c-0.5,0-0.8-0.1-0.8-0.5V35C134.5,34.4,134.4,33.8,134,33.2" />
  <path id="Path_30" class="st1" d="M147.2,33.1c-0.6-0.9-1.9-1.2-2.8-0.6c-0.2,0.1-0.4,0.3-0.6,0.6c-0.3,0.6-0.5,1.2-0.5,1.9
	c-0.1,0.7,0.1,1.3,0.5,1.9c0.4,0.6,1,0.9,1.7,0.9c0.7,0,1.3-0.3,1.7-0.9c0.3-0.6,0.5-1.2,0.5-1.9C147.8,34.4,147.6,33.7,147.2,33.1
	 M147.5,38.8c-0.6,0.3-1.3,0.5-2,0.5c-1.1,0.1-2.2-0.3-2.9-1.1c-0.7-0.8-1-1.9-0.9-2.9c-0.1-1.2,0.4-2.4,1.2-3.3
	c0.7-0.6,1.6-0.9,2.6-0.9c1.1-0.1,2.2,0.3,2.9,1.1c0.7,0.8,1.1,1.9,1,2.9C149.4,36.8,148.8,38.1,147.5,38.8" />
  <path id="Path_31" class="st1" d="M153.7,32.7h-1.1v6c0,0.3-0.2,0.6-0.8,0.6S151,39,151,38.6v-6h-0.5c-0.3,0-0.5-0.2-0.5-0.7
	c0-0.5,0.1-0.7,0.5-0.7h0.5v-2c0-0.3,0.2-0.6,0.8-0.6s0.8,0.1,0.8,0.6v2h1.1c0.3,0,0.5,0.2,0.5,0.7
	C154.2,32.4,154.1,32.7,153.7,32.7" />
  <path id="Path_32" class="st1" d="M159.9,33c-0.4-0.4-1-0.7-1.6-0.7c-0.5,0-1.1,0.2-1.5,0.6c-0.4,0.4-0.6,0.8-0.7,1.4l4.1-0.2
	C160.3,33.7,160.2,33.3,159.9,33 M162,35.2v0.2l-5.7,0.3c0,0.6,0.3,1.2,0.7,1.6c0.4,0.4,1,0.7,1.6,0.7c0.8,0,1.6-0.5,1.9-1.2
	c0.2-0.3,0.5-0.4,0.8-0.5c0.6,0,0.8,0.2,0.8,0.6V37c-0.2,0.7-0.7,1.4-1.4,1.8c-0.7,0.4-1.5,0.6-2.3,0.6c-1.1,0.1-2.2-0.3-2.9-1.1
	c-0.7-0.8-1.1-1.9-1-2.9c0-1.1,0.3-2.1,0.9-2.9c0.7-0.8,1.8-1.3,2.9-1.2c1-0.1,2,0.4,2.7,1.1c0.3,0.3,0.5,0.7,0.7,1.1
	c0.1,0.6,0.2,1.2,0.2,1.8C162,35,162,35,162,35.2" />
  <path id="Path_33" class="st1" d="M178.8,39.3c-0.6,0-0.8-0.2-0.8-0.6v-7.4l-2.9,5.9c-0.3,0.4-0.8,0.6-1.3,0.3
	c-0.1-0.1-0.2-0.2-0.3-0.3l-2.9-6v7.7c0,0.3-0.3,0.6-0.9,0.6s-0.8-0.2-0.8-0.6v-10c0-0.5,0.3-0.6,0.9-0.6c0.7,0,1.3,0.3,1.7,0.9
	l2.8,5.9l2.8-5.7c0.3-0.7,1-1.1,1.7-1c0.6,0,0.8,0.2,0.8,0.6v10C179.6,39.1,179.3,39.3,178.8,39.3" />
  <path id="Path_34" class="st1" d="M186.4,33c-0.4-0.4-1-0.7-1.6-0.7c-0.5,0-1.1,0.2-1.5,0.6c-0.4,0.4-0.6,0.8-0.7,1.4l4.1-0.2
	C186.8,33.7,186.7,33.3,186.4,33 M188.5,35.2v0.2l-5.7,0.3c0,0.6,0.3,1.2,0.7,1.6c0.4,0.4,1,0.7,1.6,0.7c0.8,0,1.6-0.5,1.9-1.2
	c0.2-0.3,0.5-0.4,0.8-0.5c0.6,0,0.8,0.2,0.8,0.6V37c-0.2,0.7-0.7,1.4-1.4,1.8c-0.7,0.4-1.5,0.6-2.3,0.6c-1.1,0.1-2.2-0.3-2.9-1.1
	c-0.7-0.8-1.1-1.9-1-2.9c0-1.1,0.3-2.1,0.9-2.9c0.7-0.8,1.8-1.3,2.9-1.2c1-0.1,2,0.4,2.7,1.1c0.3,0.3,0.5,0.7,0.7,1.1
	c0.1,0.6,0.2,1.2,0.2,1.8C188.6,35,188.6,35,188.5,35.2" />
  <path id="Path_35" class="st1" d="M193.5,32.2h-0.2c-0.6,0.1-1.1,0.5-1.2,1.1c-0.2,0.5-0.4,1.1-0.3,1.7c0,0.7,0.1,1.3,0.5,1.9
	c0.3,0.6,0.9,1,1.6,0.9c0.7,0,1.3-0.4,1.6-1c0.2-0.6,0.3-1.3,0.2-1.9v-2.8h-2L193.5,32.2z M196.5,39.2c-0.5,0-0.8-0.1-0.8-0.5v-0.5
	c-0.6,0.6-1.3,0.9-2.1,0.9c-1.1,0-2.1-0.5-2.7-1.4c-0.6-0.9-0.9-1.9-0.9-2.9c-0.1-1,0.2-2,0.8-2.8c0.7-0.8,1.7-1.3,2.7-1.2h2v-2.3
	c0-0.3,0.2-0.6,0.8-0.6s0.8,0.2,0.8,0.6v10.3C197.3,39.1,196.9,39.2,196.5,39.2" />
  <path id="Path_36" class="st1" d="M199.4,39.2c-0.5,0-0.8-0.1-0.8-0.5v-7.2c0-0.3,0.2-0.6,0.8-0.6s0.8,0.2,0.8,0.6v7.2
	C200.2,39.1,199.9,39.2,199.4,39.2 M199.4,29.8c-0.2,0-0.5-0.1-0.7-0.2c-0.2-0.2-0.3-0.4-0.2-0.7c0-0.2,0.1-0.5,0.2-0.7
	c0.2-0.2,0.4-0.3,0.7-0.2c0.2,0,0.5,0.1,0.7,0.2c0.2,0.2,0.3,0.4,0.2,0.7c0,0.3-0.1,0.5-0.3,0.7C199.8,29.8,199.6,29.8,199.4,29.8" />
  <path id="Path_37" class="st1" d="M208.4,37.4c-0.6,1.2-1.8,2-3.2,1.9c-1.1,0-2.1-0.4-2.8-1.2c-0.6-0.9-0.9-1.9-0.9-2.9
	c0-1.8,0.6-3,1.8-3.7c0.6-0.3,1.3-0.5,1.9-0.4c1.1-0.1,2.2,0.4,2.8,1.4v0.1c0,0.2-0.1,0.5-0.3,0.6c-0.2,0.2-0.4,0.3-0.7,0.2
	c-0.1,0-0.3-0.1-0.3-0.2c-0.3-0.5-0.9-0.8-1.5-0.8c-1.5,0-2.1,0.9-2.1,2.8c0,1.9,0.7,2.8,2.1,2.8c0.8,0,1.5-0.5,1.8-1.2
	c0.1-0.2,0.3-0.3,0.6-0.3c0.2,0,0.4,0.1,0.6,0.2c0.2,0.1,0.3,0.3,0.3,0.6C208.5,37.2,208.5,37.3,208.4,37.4" />
  <path id="Path_38" class="st1" d="M210.4,39.2c-0.5,0-0.8-0.1-0.8-0.5v-7.2c0-0.3,0.2-0.6,0.8-0.6s0.8,0.2,0.8,0.6v7.2
	C211.2,39.1,211,39.2,210.4,39.2 M210.4,29.8c-0.2,0-0.5-0.1-0.7-0.2c-0.2-0.2-0.3-0.4-0.2-0.7c0-0.2,0.1-0.5,0.2-0.7
	c0.2-0.2,0.4-0.3,0.7-0.2c0.2,0,0.5,0.1,0.7,0.2c0.2,0.2,0.3,0.4,0.2,0.7c0,0.3-0.1,0.5-0.3,0.7C211,29.7,210.8,29.8,210.4,29.8" />
  <path id="Path_39" class="st1" d="M219.2,39.3c-0.5,0-0.8-0.1-0.8-0.5V35c0-0.6-0.1-1.2-0.3-1.7c-0.2-0.5-0.7-0.9-1.2-1h-2.4v6.5
	c0,0.3-0.3,0.5-0.8,0.5s-0.8-0.1-0.8-0.5v-7.4c0-0.3,0.2-0.6,0.8-0.6h2.8c1,0,2,0.4,2.7,1.2c0.6,0.8,0.8,1.8,0.8,2.8v3.9
	C220.1,39.2,219.8,39.3,219.2,39.3" />
  <path id="Path_40" class="st1" d="M226.7,33c-0.4-0.4-1-0.7-1.6-0.7c-0.5,0-1.1,0.2-1.5,0.6c-0.4,0.4-0.6,0.8-0.7,1.4L227,34
	C227,33.7,226.9,33.3,226.7,33 M228.7,35.1v0.2l-5.7,0.3c0,0.6,0.3,1.2,0.7,1.6c0.4,0.4,1,0.7,1.6,0.7c0.8,0,1.6-0.5,1.9-1.2
	c0.2-0.3,0.5-0.4,0.8-0.5c0.6,0,0.8,0.2,0.8,0.6V37c-0.2,0.7-0.7,1.4-1.4,1.8c-0.7,0.4-1.5,0.6-2.3,0.6c-1.1,0.1-2.2-0.3-2.9-1.1
	c-0.7-0.8-1.1-1.9-1-2.9c0-1.1,0.3-2.1,0.9-2.9c0.7-0.8,1.8-1.3,2.9-1.2c1-0.1,2,0.4,2.7,1.1c0.3,0.3,0.5,0.7,0.7,1.1
	c0.1,0.6,0.2,1.2,0.2,1.8C228.7,35,228.7,35,228.7,35.1" />
  <path id="Path_41" class="st2" d="M59,52.2L59,52.2l1-4.2h1.1l-1.6,5.9h-0.9l-1.4-4.2l0,0L56,53.9h-1L53.5,48h1l1,4.2l0,0l1.2-4.2
	h0.9L59,52.2z" />
  <path id="Path_42" class="st2" d="M65.9,50.4c0-0.5-0.1-0.9-0.5-1.2c-0.6-0.6-1.6-0.6-2.3,0c-0.3,0.4-0.4,0.8-0.5,1.2v1
	c0,0.5,0.1,0.9,0.5,1.2c0.6,0.6,1.6,0.6,2.3,0c0.3-0.3,0.5-0.8,0.5-1.2L65.9,50.4z M67.1,51.5c0,0.7-0.3,1.4-0.8,1.8
	c-0.5,0.5-1.2,0.7-1.9,0.7c-0.7,0-1.4-0.2-1.9-0.7c-0.5-0.5-0.7-1.1-0.7-1.8v-1c0-0.7,0.2-1.3,0.7-1.8c1.1-1.1,2.8-1.1,3.8,0
	c0.5,0.5,0.8,1.1,0.8,1.8L67.1,51.5z" />
  <path id="Path_43" class="st2" d="M69.4,50.6h1.1c0.3,0,0.6-0.1,0.9-0.2c0.4-0.3,0.4-0.8,0.2-1.2c0-0.1-0.1-0.1-0.2-0.2
	c-0.3-0.2-0.6-0.2-0.9-0.2h-1.1V50.6z M69.4,51.4v2.5h-1V48h2.3c0.6,0,1.2,0.1,1.7,0.5c0.6,0.5,0.7,1.4,0.3,2
	c-0.2,0.2-0.5,0.4-0.8,0.6c0.3,0.1,0.6,0.3,0.8,0.6c0.1,0.3,0.2,0.6,0.2,0.9V53c0,0.2,0,0.3,0.1,0.5s0.1,0.3,0.2,0.3v0.1h-1.1
	c-0.1-0.1-0.2-0.3-0.2-0.5v-1c0-0.3-0.1-0.5-0.3-0.7c-0.2-0.2-0.5-0.3-0.8-0.2h-1.4V51.4z" />
  <path id="Path_44" class="st2" d="M75.4,53.1h3v0.8h-4.2V48h1.1V53.1z" />
  <path id="Path_45" class="st2" d="M80.6,48.8v4.3h1c0.9,0.1,1.6-0.6,1.7-1.4c0-0.1,0-0.2,0-0.3v-0.9c0-0.5-0.1-0.9-0.5-1.2
	c-0.3-0.3-0.8-0.5-1.2-0.5L80.6,48.8z M79.6,53.9V48h2.1c0.7,0,1.5,0.2,2,0.7c0.5,0.4,0.8,1.1,0.8,1.8v0.9c0.1,0.7-0.2,1.4-0.8,1.8
	c-0.6,0.5-1.3,0.7-2,0.7L79.6,53.9z" />
  <path id="Path_46" class="st2" d="M89.4,53.1h2.9v0.8h-4.1V48h1.1V53.1z" />
  <path id="Path_47" class="st2" d="M97.1,51.3h-2.5v1.8h2.9v0.8h-4.1V48h4.1v0.8h-2.9v1.7h2.5L97.1,51.3z" />
  <path id="Path_48" class="st2" d="M100.3,51.7h1.7l-0.8-2.4l0,0L100.3,51.7z M102.2,52.5H100l-0.5,1.4h-1.1l2.3-5.9h1l2.3,5.9h-1.1
	L102.2,52.5z" />
  <path id="Path_49" class="st2" d="M106.1,48.8v4.3h1c0.9,0.1,1.6-0.6,1.7-1.4c0-0.1,0-0.2,0-0.3v-0.9c0-0.5-0.1-0.9-0.5-1.2
	c-0.3-0.3-0.8-0.5-1.2-0.5L106.1,48.8z M104.9,53.9V48h2.1c0.7,0,1.5,0.2,2,0.7c0.5,0.4,0.8,1.1,0.8,1.8v0.9
	c0.1,0.7-0.2,1.4-0.8,1.8c-0.6,0.5-1.3,0.7-2,0.7L104.9,53.9z" />
  <path id="Path_50" class="st2" d="M114.7,51.3h-2.5v1.8h2.9v0.8h-4.1V48h4.1v0.8h-2.9v1.7h2.5V51.3z" />
  <path id="Path_51" class="st2" d="M117.5,50.6h1.1c0.3,0,0.6-0.1,0.9-0.2c0.4-0.3,0.4-0.8,0.2-1.2c0-0.1-0.1-0.1-0.2-0.2
	c-0.3-0.2-0.6-0.2-0.9-0.2h-1.1L117.5,50.6z M117.5,51.4v2.5h-1V48h2.3c0.6,0,1.2,0.1,1.7,0.5c0.6,0.5,0.7,1.4,0.3,2
	c-0.2,0.2-0.5,0.4-0.8,0.6c0.3,0.1,0.7,0.2,0.8,0.6c0.1,0.3,0.2,0.6,0.2,0.9V53c0,0.2,0,0.3,0.1,0.5c0,0.1,0.1,0.3,0.2,0.3v0.1h-1.1
	c-0.1-0.1-0.2-0.3-0.2-0.5v-1c0-0.3-0.1-0.5-0.3-0.7c-0.2-0.2-0.5-0.3-0.8-0.2h-1.4L117.5,51.4z" />
  <path id="Path_52" class="st2" d="M125.7,52.4c0-0.2-0.1-0.5-0.3-0.6c-0.3-0.2-0.7-0.3-1-0.5c-0.6-0.2-1.1-0.4-1.6-0.7
	c-0.3-0.3-0.5-0.7-0.6-1.1c0-0.4,0.2-0.9,0.6-1.1c0.5-0.3,1-0.5,1.6-0.5c0.6,0,1.2,0.2,1.7,0.6c0.4,0.3,0.6,0.8,0.6,1.2h-1
	c0-0.3-0.1-0.6-0.3-0.8c-0.3-0.2-0.6-0.3-0.9-0.2c-0.3,0-0.6,0.1-0.8,0.2c-0.3,0.2-0.4,0.6-0.3,0.9c0.1,0.1,0.2,0.2,0.3,0.3
	c0.3,0.2,0.7,0.3,1,0.5c0.5,0.2,1.1,0.4,1.6,0.7c0.3,0.3,0.5,0.7,0.6,1.1c0,0.5-0.3,0.9-0.7,1.1c-1,0.6-2.3,0.6-3.4,0
	c-0.4-0.3-0.7-0.8-0.7-1.4h1c0,0.3,0.1,0.7,0.5,0.8c0.2,0.2,0.6,0.2,1,0.2c0.3,0,0.6-0.1,0.9-0.2C125.6,52.9,125.7,52.6,125.7,52.4" />
  <rect id="Rectangle_1" x="130.5" y="48" class="st2" width="1" height="5.9" />
  <path id="Path_53" class="st2" d="M138.2,53.9h-1l-2.8-4.3l0,0v4.3h-1.1V48h1.1l2.8,4.2l0,0V48h1L138.2,53.9z" />
  <path id="Path_54" class="st2" d="M143.4,50.6h1.1c0.3,0,0.6-0.1,0.9-0.2c0.4-0.3,0.4-0.8,0.2-1.2c0-0.1-0.1-0.1-0.2-0.2
	c-0.3-0.2-0.6-0.2-0.9-0.2h-1.1L143.4,50.6z M143.4,51.4v2.5h-1V48h2.3c0.6,0,1.2,0.1,1.7,0.5c0.6,0.5,0.7,1.4,0.3,2
	c-0.2,0.2-0.5,0.4-0.8,0.6c0.3,0.1,0.7,0.2,0.8,0.6c0.1,0.3,0.2,0.6,0.2,0.9V53c0,0.2,0,0.3,0.1,0.5c0,0.1,0.1,0.3,0.2,0.3v0.1h-1.1
	c-0.1-0.1-0.2-0.3-0.2-0.5v-1c0-0.3-0.1-0.5-0.3-0.7c-0.2-0.2-0.5-0.3-0.8-0.2h-1.4L143.4,51.4z" />
  <path id="Path_55" class="st2" d="M153.1,48v3.8c0,0.6-0.2,1.2-0.7,1.6c-0.5,0.4-1.2,0.6-1.8,0.6c-0.6,0-1.3-0.2-1.8-0.6
	c-0.5-0.4-0.7-1-0.7-1.6V48h1v3.8c0,0.8,0.7,1.4,1.5,1.4c0.3,0,0.6-0.1,0.8-0.3c0.3-0.3,0.4-0.6,0.5-1V48H153.1z" />
  <path id="Path_56" class="st2" d="M155.7,50.6h1.1c0.3,0,0.6-0.1,0.9-0.2c0.4-0.3,0.4-0.8,0.2-1.2c0-0.1-0.1-0.1-0.2-0.2
	c-0.3-0.2-0.6-0.2-0.9-0.2h-1.1L155.7,50.6z M155.7,51.4v2.5h-1V48h2.3c0.6,0,1.2,0.1,1.7,0.5c0.6,0.5,0.7,1.4,0.3,2
	c-0.2,0.2-0.5,0.4-0.8,0.6c0.3,0.1,0.7,0.2,0.8,0.6c0.1,0.3,0.2,0.6,0.2,0.9V53c0,0.2,0,0.3,0.1,0.5c0,0.1,0.1,0.3,0.2,0.3v0.1h-1.1
	c-0.1-0.1-0.2-0.3-0.2-0.5v-1c0-0.3-0.1-0.5-0.3-0.7c-0.2-0.2-0.5-0.3-0.8-0.2h-1.4L155.7,51.4z" />
  <path id="Path_57" class="st2" d="M162.1,51.7h1.7l-0.8-2.4l0,0L162.1,51.7z M164.1,52.5h-2.3l-0.5,1.4h-1.1l2.3-5.9h1l2.3,5.9h-1.1
	L164.1,52.5z" />
  <path id="Path_58" class="st2" d="M167.8,53.1h3v0.8h-4.1V48h1V53.1z" />
  <path id="Path_59" class="st2" d="M175.5,50.8h1.4c0.3,0,0.7-0.1,0.9-0.3c0.4-0.4,0.5-1.1,0-1.5c0,0,0,0,0,0
	c-0.2-0.2-0.6-0.4-0.9-0.3h-1.4L175.5,50.8z M175.5,51.6v2.3h-1V48h2.5c0.6,0,1.2,0.2,1.7,0.5c0.4,0.3,0.6,0.8,0.6,1.4
	c0,0.5-0.2,1-0.6,1.4c-0.5,0.3-1.1,0.5-1.7,0.5L175.5,51.6z" />
  <path id="Path_60" class="st2" d="M181.5,50.6h1.1c0.3,0,0.6-0.1,0.9-0.2c0.4-0.3,0.4-0.8,0.2-1.2c0-0.1-0.1-0.1-0.2-0.2
	c-0.3-0.2-0.6-0.2-0.9-0.2h-1.1L181.5,50.6z M181.5,51.4v2.5h-1.1V48h2.3c0.6,0,1.2,0.1,1.7,0.5c0.6,0.5,0.7,1.4,0.3,2
	c-0.2,0.3-0.5,0.5-0.8,0.6c0.3,0.1,0.7,0.2,0.8,0.6c0.1,0.3,0.2,0.6,0.2,0.9V53c0,0.2,0,0.3,0.1,0.5s0.1,0.3,0.2,0.3v0.1h-1.1
	c-0.1-0.1-0.2-0.3-0.2-0.5v-1c0-0.3-0.1-0.5-0.3-0.7c-0.2-0.2-0.5-0.3-0.8-0.2h-1.2L181.5,51.4z" />
  <path id="Path_61" class="st2" d="M187.9,51.7h1.7l-0.8-2.4l0,0L187.9,51.7z M189.9,52.5h-2.3l-0.5,1.4h-1.1l2.3-5.9h1l2.3,5.9h-1.1
	L189.9,52.5z" />
  <path id="Path_62" class="st2" d="M197,51.9L197,51.9c0,0.6-0.2,1.1-0.7,1.5c-0.5,0.4-1.1,0.6-1.7,0.6c-1.3,0.1-2.4-0.9-2.5-2.2
	c0-0.1,0-0.2,0-0.3v-1.1c0-0.7,0.2-1.3,0.7-1.8c0.5-0.5,1.1-0.7,1.8-0.7c0.6,0,1.3,0.2,1.8,0.6c0.5,0.3,0.7,0.9,0.7,1.5h-1
	c0-0.3-0.1-0.7-0.3-0.9c-0.3-0.2-0.6-0.4-1-0.3c-0.4,0-0.8,0.1-1,0.5c-0.2,0.4-0.4,0.8-0.3,1.2v1.1c0,0.4,0.1,0.9,0.3,1.2
	c0.2,0.3,0.6,0.5,1,0.5c0.4,0,0.7-0.1,1-0.3c0.2-0.2,0.3-0.6,0.3-0.9L197,51.9L197,51.9z" />
  <path id="Path_63" class="st2" d="M202.9,48.8h-2v5.1h-1v-5.1h-2V48h5.1V48.8z" />
  <rect id="Rectangle_2" x="204" y="48" class="st2" width="1" height="5.9" />
  <path id="Path_64" class="st2" d="M211.3,51.9L211.3,51.9c0,0.6-0.2,1.1-0.7,1.5c-0.5,0.4-1.1,0.6-1.7,0.6c-1.3,0.1-2.4-0.9-2.5-2.2
	c0-0.1,0-0.2,0-0.3v-1.1c0-0.7,0.2-1.3,0.7-1.8c0.5-0.5,1.1-0.7,1.8-0.7c0.6,0,1.3,0.2,1.8,0.6c0.5,0.3,0.7,0.9,0.7,1.5h-1
	c0-0.3-0.1-0.7-0.3-0.9c-0.3-0.2-0.6-0.4-1-0.3c-0.4,0-0.8,0.1-1,0.5c-0.2,0.4-0.4,0.8-0.3,1.2v1.1c0,0.4,0.1,0.9,0.3,1.2
	c0.2,0.3,0.6,0.5,1,0.5c0.4,0,0.7-0.1,1-0.3c0.2-0.2,0.3-0.6,0.3-0.9L211.3,51.9L211.3,51.9z" />
  <path id="Path_65" class="st2" d="M216.2,51.3h-2.5v1.8h2.9v0.8h-3.9V48h3.9v0.8h-2.9v1.7h2.5L216.2,51.3z" />
  <path id="Path_66" class="st1" d="M7.7,0.5c0,0-7.7,0-7.7,7.7v56.2h30.7c0,0,7.7,0,7.7-7.7V0.5H7.7z" />
  <path id="Path_67" class="st3" d="M16,22.2L5.6,25.1l3.3,6.1l7.7-8.1C16.3,22.8,16.2,22.5,16,22.2" />
  <path id="Path_68" class="st3" d="M19.2,24.3h-0.5L8.6,64.5h21L19.4,24.3H19.2" />
  <path id="Path_69" class="st3" d="M21.4,17.9l7.6-8l-5.6-3.5l-2.8,11C20.8,17.5,21.2,17.7,21.4,17.9" />
  <path id="Path_70" class="st3" d="M17.2,23.7l-7.8,8.2l5.6,3.5l2.8-11.3C17.7,23.9,17.5,23.8,17.2,23.7" />
  <path id="Path_71" class="st3" d="M17.8,17.5L15,6.5L9.4,10l7.6,8C17.2,17.8,17.5,17.6,17.8,17.5" />
  <path id="Path_72" class="st3" d="M15.7,20.7v-0.3L5.4,17.5v6.9l10.4-2.9C15.7,21.2,15.7,21,15.7,20.7" />
  <path id="Path_73" class="st3" d="M19.2,17.2h0.5l2.8-10.9h-6.5l2.8,10.9H19.2" />
  <path id="Path_74" class="st3" d="M22.8,20.7c0,0.2,0,0.5-0.1,0.7l10.3,2.9v-6.9l-10.3,2.9C22.8,20.4,22.8,20.6,22.8,20.7" />
  <path id="Path_75" class="st3" d="M21.9,23.1l7.7,8.1l3.3-6l-10.4-2.9C22.3,22.6,22.1,22.9,21.9,23.1" />
  <path id="Path_76" class="st3" d="M22.5,19.5l10.3-2.9l-3.3-6L22,18.5C22.2,18.8,22.4,19.1,22.5,19.5" />
  <path id="Path_77" class="st3" d="M20.4,24l2.8,11.3l5.6-3.4l-7.8-8.2C20.9,23.9,20.7,24,20.4,24" />
  <path id="Path_78" class="st3" d="M16.3,18.6l-7.6-7.9l-3.2,5.9l10.3,2.9C16,19.2,16.2,18.9,16.3,18.6" />
  <path id="Path_80" class="st2" d="M25,23.9c-0.4-0.8-1-1.4-1.8-1.8c-1.1-0.5-1.7-0.1-2.8,0c-1.9,0.2-3.8,0.8-5.4,1.9
	c-2.1,1.8-2.4,4.9-0.6,7c0.6,0.7,1.4,1.2,2.3,1.5c0.2-0.9,0.7-2.6,0.7-2.6c-0.6-0.3-1.9-1.5-0.7-3.6c0.5-0.8,1.2-1.4,2-1.7
	c0.3-0.1,0.7-0.2,1-0.2c0.5,0,1,0.1,1.5,0.5c0.9,0.8,1.7,0.7,2.8,0.6C24.7,25.3,25.6,24.9,25,23.9" />
  <path id="Path_81" class="st2" d="M24.2,42.8c0,0,0.7,2.7,0.9,3.5c0,1-1.1,1.2-2.1,1.6c-1.4,0.5-2.8,0.8-4.3,1.1s-3,0.7-4.6,0.9
	c-0.4,0.1-0.9,0.2-1.4,0.2c-1.2,0.2-2.4,0.6-3.5,1.1C8,52.4,7.5,54.1,8,55.7c0.5,1,1.3,1.7,2.4,2l0.3-1.2c0.2-0.9,0.2-0.8,0.5-1.9
	c0.3-0.4,0.7-0.7,1.1-0.8c3.8-1.1,9.8-2.6,11.7-3.2C31.2,48.8,28.3,42.5,24.2,42.8" />
  <path id="Path_82" class="st2" d="M21.3,31.1c0,0,0.7,2.7,0.9,3.5c0,1-1.1,1.2-2.1,1.6c-1.3,0.4-2.7,0.8-4.1,1.1
	c-1.2,0.2-2.4,0.6-3.5,1.1c-1.3,1-1.8,2.7-1.4,4.3c0.5,1,1.3,1.7,2.4,2l0.3-1.2c0.2-0.9,0.2-0.8,0.5-1.9c0.1-0.3,0.7-0.6,1.1-0.8
	c3.7-1.4,3.6-1.2,5.5-1.9C28.2,36.9,25.2,30.6,21.3,31.1" />
  <path id="Path_83" class="st2" d="M27.7,56.5l0.6,2.3c0.5,0.4,0.6,1.1,0.5,1.7c-0.2,0.7-0.5,1.4-1,1.9c-0.7,0.6-1.4,1.2-2.3,1.6
	c-0.2,0.1,0,0.2,0.1,0.2c0.7-0.1,1.3-0.3,1.9-0.6c0.7-0.3,1.2-0.8,1.6-1.5c0.5-0.7,0.8-1.5,0.8-2.4C29.9,58.3,29.1,57,27.7,56.5" />
  <path id="Path_84" class="st1" d="M21.4,24.1c-0.7,0.7,1,0.9,1.5,0.6C22.6,24.1,22,23.9,21.4,24.1" />
</svg>